<svg xmlns="http://www.w3.org/2000/svg" width="200" height="26" viewBox="0 0 200 26" fill="none">
  <path fill-rule="evenodd" clip-rule="evenodd" d="M20.339 2.02356C20.4668 2.02792 20.5821 2.03622 20.6831 2.04884C20.9448 2.08148 20.905 2.31638 20.846 2.66782C19.3825 11.3944 18.7348 20.7962 23.8923 25.2913C23.9466 25.3411 24.0216 25.4457 23.9963 25.4846C23.9712 25.5234 23.8195 25.5025 23.7572 25.4986C21.2182 25.3409 10.9792 21.2701 11.4138 3.80141C11.4207 3.52146 11.4581 3.39344 11.8727 3.27254C13.2587 2.86844 17.64 2.08374 19.8531 2.02356H20.339ZM3.97715 10.8264C4.21878 10.6559 6.95844 9.30609 9.47713 8.40548C9.98147 8.24495 9.97824 8.76673 10.0023 8.90374C12.3556 22.3119 18.1073 23.9992 19.7249 25.3252C19.9424 25.4698 19.6638 25.5237 19.3879 25.5102C7.75841 25.547 4.25665 14.8518 3.61288 11.3455C3.5535 11.0221 3.73553 10.9968 3.97715 10.8264ZM0.256255 19.3307C0.852336 18.6015 2.58689 17.1382 3.30884 16.6594C3.52775 16.5143 3.68622 16.8492 3.8797 17.3056C4.65947 18.9777 5.82164 20.7369 6.96424 21.8948C9.24791 24.2091 11.7455 25.0926 11.8725 25.196C12.0672 25.3549 12.0655 25.4809 11.6922 25.4947C3.79057 25.7882 0.561252 22.0499 0.0219091 19.8845C-0.0363513 19.6506 0.0149526 19.6258 0.256255 19.3307Z" fill="#F0F0F2"/>
  <path d="M42.5264 1.73878L39.0561 15.6876L35.9145 1.73878H29.9237L35.8049 25.4634H41.1748L44.6816 11.5532L48.1519 25.4634H53.5217L59.4395 1.73878H53.5217L50.4167 15.6876L46.9829 1.73878H42.5264Z" fill="#F0F0F2"/>
  <path d="M68.0132 19.397C67.6844 20.5948 66.7712 21.1358 65.6022 21.1358C63.9584 21.1358 62.9356 20.0153 62.7529 17.9287H73.383V16.4218C73.383 11.2441 70.5337 7.68926 65.4926 7.68926C60.7438 7.68926 57.237 11.3987 57.237 16.7695C57.237 22.1791 60.5612 25.8498 65.6022 25.8498C69.8762 25.8498 72.7255 23.4155 73.3099 19.397H68.0132ZM65.4926 12.4033C66.9173 12.4033 67.7575 13.4852 67.8305 14.9148H62.8625C63.2278 13.292 64.1411 12.4033 65.4926 12.4033Z" fill="#F0F0F2"/>
  <path d="M89.6453 25.4634V14.7989C89.6453 10.2781 86.9786 7.65062 82.3029 7.65062C78.0655 7.65062 75.2527 10.3167 74.7778 13.6784H80.1842C80.4399 12.9056 81.0609 12.4033 82.1202 12.4033C83.5083 12.4033 84.1293 13.3693 84.1293 14.4898V15.6104C83.4718 15.108 81.8645 14.6444 80.5129 14.6444C76.933 14.6444 74.1933 16.8082 74.1933 20.1698C74.1933 23.8406 76.933 25.7725 80.1842 25.7725C81.9376 25.7725 83.5814 25.1543 84.1293 24.5747V25.4634H89.6453ZM84.1293 20.5948C83.764 21.2904 82.7778 21.754 81.7184 21.754C80.586 21.754 79.4536 21.2517 79.4536 20.0539C79.4536 18.8947 80.586 18.3924 81.7184 18.3924C82.7778 18.3924 83.764 18.8561 84.1293 19.5902V20.5948Z" fill="#F0F0F2"/>
  <path d="M96.9906 0.347755H91.2555V25.4634H96.9906V12.9056V0.347755Z" fill="#F0F0F2"/>
  <path d="M100.64 19.4743C100.64 23.8792 102.832 25.8112 106.704 25.8112C107.982 25.8112 109.224 25.5793 109.882 25.2702V20.1312C109.371 20.363 108.676 20.5176 108.055 20.5176C106.923 20.5176 106.302 19.938 106.302 18.5856V12.7897H109.736V8.07565H106.302V3.28436H100.64V8.07565H98.2291V12.7897H100.64V19.4743Z" fill="#F0F0F2"/>
  <path d="M111.036 25.4634H116.771V14.9535C117.063 13.7557 118.013 13.0601 119.145 13.0601C120.606 13.0601 121.3 14.1034 121.3 15.5331V25.4634H126.999V14.0648C126.999 10.2008 124.844 7.68926 121.191 7.68926C119.291 7.68926 117.684 8.50069 116.771 9.58259V0.347755H111.036V25.4634Z" fill="#F0F0F2"/>
  <path d="M139.422 0.463675C138.728 0.193197 137.852 0 136.756 0C132.737 0 130.363 2.62749 130.363 6.80055V8.07565H127.916V12.7897H130.363V25.4634H136.025V12.7897H139.203V8.07565H136.025V7.1483C136.025 5.75728 136.792 5.06177 138.071 5.06177C138.582 5.06177 139.021 5.17769 139.422 5.40953V0.463675Z" fill="#F0F0F2"/>
  <path d="M151.357 7.99837C151.101 7.84382 150.516 7.68926 149.786 7.68926C148.142 7.68926 146.863 8.46205 146.06 9.62123V8.07565H140.325V25.4634H146.06V15.2626C146.352 14.0261 147.411 13.292 148.982 13.292C149.895 13.292 150.662 13.4465 151.357 13.8329V7.99837Z" fill="#F0F0F2"/>
  <path d="M169.017 16.7695C169.017 11.3987 165.314 7.68926 160.31 7.68926C155.342 7.68926 151.908 11.3987 151.908 16.7695C151.908 22.1404 155.647 25.8498 160.615 25.8498C165.619 25.8498 169.017 22.1404 169.017 16.7695ZM163.086 16.7695C163.086 19.1652 162.099 20.8267 160.31 20.8267C158.556 20.8267 157.57 19.1652 157.57 16.7695C157.57 14.3739 158.556 12.6738 160.31 12.6738C162.099 12.6738 163.086 14.3739 163.086 16.7695Z" fill="#F0F0F2"/>
  <path d="M170.254 25.4634H175.989V14.9535C176.282 13.7557 177.231 13.0601 178.364 13.0601C179.825 13.0601 180.519 14.1034 180.519 15.5331V25.4634H186.218V14.0648C186.218 10.2008 184.062 7.68926 180.409 7.68926C178.51 7.68926 176.903 8.50069 175.989 9.58259V8.07565H170.254V25.4634Z" fill="#F0F0F2"/>
  <path d="M189.266 19.4743C189.266 23.8792 191.458 25.8112 195.33 25.8112C196.609 25.8112 197.851 25.5793 198.508 25.2702V20.1312C197.997 20.363 197.303 20.5176 196.682 20.5176C195.549 20.5176 194.928 19.938 194.928 18.5856V12.7897H198.362V8.07565H194.928V3.28436H189.266V8.07565H186.855V12.7897H189.266V19.4743Z" fill="#F0F0F2"/>
</svg>